<svg width="25" height="25" viewBox="0 0 25 25" fill="none" xmlns="http://www.w3.org/2000/svg">
<path d="M4.375 3.21875C4.58611 2.72671 4.93702 2.30747 5.38422 2.01305C5.83141 1.71862 6.35521 1.56196 6.89062 1.5625H18.1094C19.2031 1.5625 20.1922 2.21406 20.625 3.21875L24.9062 13.2109C24.9688 13.3563 25 13.5141 25 13.6719V20.7031C25 21.4283 24.7119 22.1238 24.1991 22.6366C23.6863 23.1494 22.9908 23.4375 22.2656 23.4375H2.73438C2.00917 23.4375 1.31367 23.1494 0.80088 22.6366C0.288085 22.1238 0 21.4283 0 20.7031L0 13.6719C0 13.5141 0.03125 13.3563 0.09375 13.2109L4.375 3.21875ZM6.89062 3.90625C6.81404 3.90625 6.73914 3.92876 6.67524 3.97099C6.61135 4.01321 6.56127 4.07329 6.53125 4.14375L2.94844 12.5H7.42188C7.6038 12.5 7.78323 12.5424 7.94595 12.6237C8.10867 12.7051 8.25022 12.8232 8.35938 12.9688L10.3516 15.625H14.6484L16.6406 12.9688C16.7498 12.8232 16.8913 12.7051 17.054 12.6237C17.2168 12.5424 17.3962 12.5 17.5781 12.5H22.0516L18.4688 4.14375C18.4387 4.07329 18.3887 4.01321 18.3248 3.97099C18.2609 3.92876 18.186 3.90625 18.1094 3.90625H6.89062ZM22.6562 14.8438H18.1641L16.1719 17.5C16.0627 17.6455 15.9212 17.7637 15.7585 17.845C15.5957 17.9264 15.4163 17.9688 15.2344 17.9688H9.76562C9.5837 17.9688 9.40427 17.9264 9.24155 17.845C9.07883 17.7637 8.93728 17.6455 8.82812 17.5L6.83594 14.8438H2.34375V20.7031C2.34375 20.9188 2.51875 21.0938 2.73438 21.0938H22.2656C22.3692 21.0938 22.4686 21.0526 22.5418 20.9793C22.6151 20.9061 22.6562 20.8067 22.6562 20.7031V14.8438Z" fill="#F3FFFB"/>
</svg>
